<svg width="28" height="28" viewBox="0 0 28 28" fill="none" xmlns="http://www.w3.org/2000/svg">
<g clip-path="url(#clip0_2_359)">
<path d="M5.18503 9.00016L5.18503 9.00014C5.60328 7.11895 6.63837 5.43155 8.12576 4.20619C9.61315 2.98083 11.4675 2.28783 13.3939 2.23737C15.3204 2.1869 17.2085 2.78185 18.758 3.92766C20.3075 5.07346 21.4295 6.70435 21.9457 8.56106L21.8493 8.58785L21.9457 8.56107L24.1622 16.536C24.1623 16.5361 24.1623 16.5362 24.1623 16.5363C24.3129 17.0708 24.3369 17.633 24.2323 18.1784C24.1278 18.7237 23.8975 19.2372 23.5599 19.678C23.5599 19.6781 23.5598 19.6782 23.5597 19.6783L23.4803 19.6175C23.1552 20.0488 22.734 20.3983 22.2502 20.6383C21.7664 20.8783 21.2332 21.0021 20.6931 21L5.18503 9.00016ZM5.18503 9.00016L3.47003 16.7188C3.35305 17.245 3.35574 17.7908 3.4779 18.3158C3.60006 18.8409 3.83857 19.3318 4.17582 19.7523C4.51308 20.1728 4.94046 20.5122 5.42644 20.7455C5.91241 20.9788 6.44457 21.0999 6.98363 21.1L20.6928 21.1L5.18503 9.00016ZM26.2178 15.9658L26.2381 16.039H26.2388C26.4574 16.8686 26.4871 17.737 26.3254 18.5802C26.1588 19.4483 25.7939 20.266 25.259 20.9697C24.7241 21.6733 24.0338 22.2438 23.2419 22.6364C22.4501 23.0291 21.5782 23.2334 20.6943 23.2333H19.7166H19.6349L19.6186 23.3134C19.3555 24.6095 18.6523 25.7747 17.6283 26.6117C16.6043 27.4487 15.3225 27.9059 14 27.9059C12.6775 27.9059 11.3956 27.4487 10.3716 26.6117C9.34764 25.7747 8.64449 24.6095 8.38131 23.3134L8.36505 23.2333H8.28331H6.98365C6.12505 23.2334 5.2774 23.0406 4.5033 22.6691C3.7292 22.2977 3.0484 21.7572 2.51116 21.0874C1.97393 20.4177 1.59398 19.6358 1.39937 18.7996C1.20475 17.9633 1.20045 17.094 1.38676 16.2559L3.10293 8.53839C3.62449 6.19288 4.91511 4.08901 6.76964 2.5612C8.62416 1.0334 10.9362 0.169334 13.3381 0.106358C15.7401 0.0433828 18.0942 0.78511 20.0263 2.21364C21.9583 3.64217 23.3574 5.67551 24.0011 7.99046L26.2178 15.9658ZM10.7146 23.2333H10.5732L10.6204 23.3667C10.8677 24.0662 11.325 24.6722 11.9299 25.1018C12.5348 25.5314 13.2577 25.7636 13.9996 25.7667L14.0004 25.7667C14.7423 25.7636 15.4651 25.5314 16.07 25.1018C16.6749 24.6722 17.1323 24.0662 17.3796 23.3667L17.4267 23.2333H17.2853H10.7146Z" fill="#6D7D93" stroke="#0D0D0D" stroke-width="0.2"/>
</g>
<defs>
<clipPath id="clip0_2_359">
<rect width="28" height="28" fill="white"/>
</clipPath>
</defs>
</svg>
