<svg width="24" height="24" viewBox="0 0 24 24" fill="none" xmlns="http://www.w3.org/2000/svg">
<path d="M15 8.00002H21.54C21.1909 7.0749 20.6485 6.2349 19.949 5.53604L16.465 2.05004C15.7653 1.35137 14.9251 0.80935 14 0.460037V7.00004C14 7.55227 14.4477 8.00002 15 8.00002Z" fill="currentColor"/>
<path d="M21.976 9.99998H15C13.3432 9.99998 12 8.65683 12 6.99998V0.024C11.839 0.0129844 11.678 0 11.515 0H6.99998C4.23994 0.00332813 2.0033 2.23997 2.00002 5.00002V19C2.0033 21.76 4.23994 23.9967 6.99998 24H17C19.76 23.9967 21.9967 21.76 22 19V10.485C22 10.322 21.987 10.161 21.976 9.99998Z" fill="currentColor"/>
</svg>
