<svg width="28" height="28" viewBox="0 0 28 28" fill="none" xmlns="http://www.w3.org/2000/svg">
<path d="M25.3076 13.3718C25.312 15.0301 24.9245 16.666 24.1769 18.1462C23.2904 19.9199 21.9276 21.4118 20.2411 22.4548C18.5546 23.4977 16.6111 24.0506 14.6282 24.0513C12.9699 24.0557 11.334 23.6682 9.8538 22.9206L2.69226 25.3077L5.07944 18.1462C4.33179 16.666 3.94435 15.0301 3.94867 13.3718C3.94944 11.3889 4.50226 9.44538 5.54522 7.75889C6.58817 6.07241 8.08007 4.70961 9.8538 3.82313C11.334 3.07548 12.9699 2.68803 14.6282 2.69236H15.2564C17.8752 2.83683 20.3486 3.94219 22.2032 5.79677C24.0578 7.65135 25.1632 10.1248 25.3076 12.7436V13.3718Z" stroke="#6D7D93" stroke-width="2" stroke-linecap="round" stroke-linejoin="round"/>
</svg>
