<svg width="25" height="25" viewBox="0 0 25 25" fill="none" xmlns="http://www.w3.org/2000/svg">
<path fill-rule="evenodd" clip-rule="evenodd" d="M4.5 7H19V4.5C19 3.67157 18.3284 3 17.5 3C17.4383 3 17.3767 3.00381 17.3154 3.0114L4.16959 4.64132C2.92758 4.80692 2 5.86638 2 7.11939V8.05051C2.63526 7.40223 3.52066 7 4.5 7ZM20.5 8H4.5C3.81814 8 3.18214 8.27292 2.71424 8.75041L2 9.47928V20.5C2 21.8807 3.11929 23 4.5 23H20.5C21.8807 23 23 21.8807 23 20.5V19H17.5C15.567 19 14 17.433 14 15.5C14 13.567 15.567 12 17.5 12H23V10.5C23 9.11929 21.8807 8 20.5 8ZM17.5 13C16.1193 13 15 14.1193 15 15.5C15 16.8807 16.1193 18 17.5 18H23V13H17.5Z" fill="currentColor"/>
</svg>
