<svg width="21" height="20" viewBox="0 0 21 20" fill="none" xmlns="http://www.w3.org/2000/svg">
<path fill-rule="evenodd" clip-rule="evenodd" d="M2.5 4H17V1.5C17 0.671573 16.3284 0 15.5 0C15.4383 0 15.3767 0.00380661 15.3154 0.0113982L2.16959 1.64132C0.927576 1.80692 0 2.86638 0 4.11939V5.05051C0.635258 4.40223 1.52066 4 2.5 4ZM18.5 5H2.5C1.81814 5 1.18214 5.27292 0.714241 5.75041L0 6.47928V17.5C0 18.8807 1.11929 20 2.5 20H18.5C19.8807 20 21 18.8807 21 17.5V16H15.5C13.567 16 12 14.433 12 12.5C12 10.567 13.567 9 15.5 9H21V7.5C21 6.11929 19.8807 5 18.5 5ZM15.5 10C14.1193 10 13 11.1193 13 12.5C13 13.8807 14.1193 15 15.5 15H21V10H15.5Z" fill="#D1D1D1"/>
</svg>
