<svg width="24" height="24" viewBox="0 0 24 24" fill="none" xmlns="http://www.w3.org/2000/svg">
<path d="M1.60702 18C2.43417 19.4356 4.26853 19.9288 5.70412 19.1017C5.70511 19.1011 5.70605 19.1005 5.70703 19.1L6.15201 18.843C6.99201 19.5616 7.95755 20.119 9 20.487V21C9 22.6568 10.3432 24 12 24C13.6568 24 15 22.6568 15 21V20.487C16.0426 20.1184 17.0082 19.5604 17.848 18.841L18.295 19.099C19.7309 19.9274 21.5666 19.4349 22.395 17.999C23.2234 16.563 22.731 14.7274 21.295 13.899L20.851 13.643C21.0509 12.5554 21.0509 11.4405 20.851 10.353L21.295 10.097C22.7309 9.26855 23.2234 7.43292 22.395 5.99695C21.5666 4.56103 19.731 4.06852 18.295 4.89694L17.85 5.15395C17.0092 4.43616 16.043 3.87984 15 3.513V3C15 1.34316 13.6568 0 12 0C10.3432 0 9 1.34316 9 3V3.513C7.95741 3.88158 6.99183 4.43958 6.15201 5.15902L5.70501 4.90003C4.26905 4.07156 2.43342 4.56408 1.605 6C0.776578 7.43592 1.26905 9.27159 2.70502 10.1L3.14902 10.356C2.94914 11.4435 2.94914 12.5584 3.14902 13.646L2.70502 13.902C1.27303 14.7326 0.782156 16.5647 1.60702 18ZM12 8.00002C14.2091 8.00002 16 9.79088 16 12C16 14.2091 14.2091 16 12 16C9.79087 16 8.00002 14.2091 8.00002 12C8.00002 9.79088 9.79087 8.00002 12 8.00002Z" fill="currentColor"/>
</svg>
